<?xml version="1.0" encoding="UTF-8" standalone="no"?><svg xmlns="http://www.w3.org/2000/svg" xmlns:xlink="http://www.w3.org/1999/xlink" fill="#0f1544" height="300.2" preserveAspectRatio="xMidYMid meet" version="1" viewBox="0.0 0.0 308.5 300.2" width="308.5" zoomAndPan="magnify"><g><g id="change1_2"><path d="M274.5,2.2H59.2c-13.3,0-25.3,8.5-29.7,21.1l-0.4,1.2l-1.2,0.2C13,27.6,2.2,40.7,2.2,55.8V160c0,1.8,1.4,3.2,3.2,3.2 c1.8,0,3.2-1.4,3.2-3.2V55.8c0-14,11.4-25.4,25.4-25.4h215.3c14,0,25.4,11.4,25.4,25.4v148.2c0,1.7-0.2,3.2-0.5,4.7l-0.2,0.8 c-2.6,11.5-13,19.8-24.7,19.8H141.6c-1.8,0-3.2,1.4-3.2,3.2s1.4,3.2,3.2,3.2h107.7c13.4,0,25.4-8.5,29.9-21.1l0.4-1.2l1.2-0.2 c14.8-3,25.5-16,25.5-31.1V33.9C306.3,16.4,292,2.2,274.5,2.2z M299.9,182.2c0,10.2-6.4,19.7-15.9,23.5l-3,1.2V55.8 c0-17.5-14.2-31.7-31.7-31.7H35.6l2-3.3c4.6-7.6,12.7-12.2,21.7-12.2h215.3c14,0,25.4,11.4,25.4,25.4V182.2z" fill="inherit"/><path d="M274.5,6.4H59.2c-9.7,0-18.6,5-23.6,13.3l-4,6.7h7.8h209.8c16.3,0,29.5,13.2,29.5,29.5v147.8v6.5l6.1-2.5 c10.4-4.2,17.3-14.5,17.3-25.6V33.9C302.1,18.7,289.7,6.4,274.5,6.4z M297.7,182.1c0,9.6-6,18-14.6,21.5V55.8 c0-18.7-15.2-33.9-33.9-33.9H39.5c4.1-6.8,11.5-11.1,19.8-11.1h215.3c12.8,0,23.2,10.4,23.2,23.2V182.1z" fill="inherit"/><path d="M274.5,0H59.2C44.7,0,32.2,9.1,27.4,22.5C11.8,25.6,0,39.3,0,55.8V160c0,3,2.4,5.4,5.4,5.4c3,0,5.4-2.4,5.4-5.4V55.8 c0-12.8,10.4-23.2,23.2-23.2h215.3c12.8,0,23.2,10.4,23.2,23.2v148.2c0,1.4-0.2,2.7-0.4,4c-0.1,0.4-0.1,0.7-0.2,1.1 c-2.3,10.3-11.5,18.1-22.6,18.1H141.6c-3,0-5.4,2.4-5.4,5.4s2.4,5.4,5.4,5.4h107.7c14.7,0,27.3-9.5,31.9-22.6 c15.6-3.1,27.3-17,27.3-33.2V33.9C308.5,15.2,293.2,0,274.5,0z M304.1,182.1c0,14-10,26.2-23.8,28.9l-2.4,0.5l-0.8,2.4 c-4.2,11.8-15.4,19.7-27.8,19.7H141.6c-0.5,0-1-0.4-1-1c0-0.5,0.4-1,1-1h107.7c12.8,0,24.1-9.1,26.9-21.5c0.1-0.3,0.1-0.6,0.2-1 l0.1-0.3c0.2-1.2,0.5-2.9,0.5-4.8V55.8c0-15.2-12.4-27.6-27.6-27.6H33.9c-15.2,0-27.6,12.4-27.6,27.6V160c0,0.5-0.4,1-1,1 c-0.5,0-1-0.4-1-1V55.8c0-14.1,10-26.3,23.9-29l2.5-0.5l0.8-2.4C35.8,12.1,46.7,4.4,59.2,4.4h215.3c16.3,0,29.5,13.2,29.5,29.5 V182.1z" fill="inherit"/><path d="M274.5,8.6H59.2c-9,0-17.1,4.6-21.7,12.2l-2,3.3h3.9h209.8c17.5,0,31.7,14.2,31.7,31.7v147.8v3.3l3-1.2 c9.5-3.9,15.9-13.3,15.9-23.5V33.9C299.9,19.9,288.5,8.6,274.5,8.6z M297.7,182.1c0,9.6-6,18-14.6,21.5V55.8 c0-18.7-15.2-33.9-33.9-33.9H39.5c4.1-6.8,11.5-11.1,19.8-11.1h215.3c12.8,0,23.2,10.4,23.2,23.2V182.1z" fill="inherit"/><path d="M274.5,0H59.2C44.7,0,32.2,9.1,27.4,22.5C11.8,25.6,0,39.3,0,55.8V160c0,3,2.4,5.4,5.4,5.4c3,0,5.4-2.4,5.4-5.4V55.8 c0-12.8,10.4-23.2,23.2-23.2h215.3c12.8,0,23.2,10.4,23.2,23.2v148.2c0,1.4-0.2,2.7-0.4,4c-0.1,0.4-0.1,0.7-0.2,1.1 c-2.3,10.3-11.5,18.1-22.6,18.1H141.6c-3,0-5.4,2.4-5.4,5.4s2.4,5.4,5.4,5.4h107.7c14.7,0,27.3-9.5,31.9-22.6 c15.6-3.1,27.3-17,27.3-33.2V33.9C308.5,15.2,293.2,0,274.5,0z M306.3,182.1c0,15-10.7,28.1-25.5,31.1l-1.2,0.2l-0.4,1.2 c-4.5,12.6-16.5,21.1-29.9,21.1H141.6c-1.8,0-3.2-1.4-3.2-3.2c0-1.8,1.4-3.2,3.2-3.2h107.7c11.7,0,22.1-8.3,24.7-19.8 c0.1-0.3,0.1-0.6,0.2-0.8l0.1-0.3c0.2-1.2,0.4-2.7,0.4-4.4V55.8c0-14-11.4-25.4-25.4-25.4H33.9c-14,0-25.4,11.4-25.4,25.4V160 c0,1.8-1.4,3.2-3.2,3.2c-1.8,0-3.2-1.4-3.2-3.2V55.8c0-15.1,10.8-28.2,25.6-31.1l1.2-0.2l0.4-1.2C34,10.7,45.9,2.2,59.2,2.2h215.3 c17.5,0,31.7,14.2,31.7,31.7V182.1z" fill="inherit"/></g><g id="change1_1"><path d="M218.9,203.5c0.1,0.2,0,0.3,0.1,0.5c0,0.1,0,0.1,0.1,0.2L218.9,203.5z" fill="inherit"/><path d="M212.6,125.2c-11.9-28-30.7-58.3-46-62.7l-0.7-0.2l-0.4-0.6c-1.7-2.5-4.2-4.1-7.1-4.7c-0.7-0.1-1.4-0.2-2.1-0.2 c-3,0-5.9,1.2-8,3.4l-6.7,6.8c-0.9,0.9-1.2,2.3-0.7,3.5l4.6,10.8l-0.5,0.9c-23,40.1-59.8,62.4-74.6,70.1l-2.1,1.1l-1.7-4 c-0.3-0.8-1-1.4-1.7-1.7c-0.4-0.2-0.8-0.2-1.2-0.2c-0.4,0-0.8,0.1-1.2,0.3l-34.9,14.8c-1.6,0.7-2.4,2.6-1.7,4.2l2.6,6.1l-1.5,1 c-10.8,7.2-14.9,21-9.9,32.9l1.1,2.6c2.8,6.6,8,11.8,14.7,14.5c3.3,1.3,6.7,2,10.1,2c1.8,0,3.7-0.2,5.7-0.7l1.8-0.4l2.6,6 c0.3,0.8,1,1.4,1.7,1.7c0.4,0.2,0.8,0.2,1.2,0.2c0.4,0,0.9-0.1,1.2-0.2l6.8-2.9l8.8,56.5c0.7,4.3,3.2,8,7,10.1 c2.1,1.2,4.4,1.8,6.8,1.8c1.9,0,3.7-0.4,5.5-1.1c5.7-2.4,9.1-8.1,8.5-14.2l-4-41.3l1.7-0.6c5.2-1.7,14.7-5.9,20.2-14.7 c3.8-6.1,5.1-13.5,3.7-21.8l-0.3-2.2l2.2-0.3c10.5-1.7,21.1-2.6,31.4-2.6c14.3,0,28.1,1.7,41.1,5l1.1,0.3l4.6,10.8 c0.5,1.2,1.7,1.9,3,1.9l9.5-0.1c3.8,0,7.3-1.9,9.4-5.1c1.6-2.4,2.2-5.4,1.6-8.4l-0.2-0.8l0.4-0.7 C233.1,187.8,224.4,153.2,212.6,125.2z M44.8,219.1c-0.7,0.1-1.4,0.1-2.1,0.1c-2.6,0-5.2-0.5-7.7-1.5c-5.1-2.1-9.1-6-11.2-11 l-1.1-2.6c-3.5-8.4-1.2-17.9,5.7-23.8l2.3-1.9l17.1,40.4L44.8,219.1z M57.4,225.2l-2.4-5.7l-0.2-0.5v-0.1l-21.9-51.8l29-12.3 l24.6,58.1L57.4,225.2z M89.3,290.8c-1,0.4-2,0.6-3,0.6c-1.3,0-2.6-0.3-3.7-1c-2.1-1.1-3.5-3.1-3.8-5.5l-9.1-58.1l18.1-7.7L94,283 C94.3,286.4,92.4,289.5,89.3,290.8z M112.9,222.4c-2.9,4.7-7.9,8.6-14.4,11.2l-2.7,1.1l-1.9-20c-0.1-0.1-0.2-0.4-0.2-0.7l-0.1-0.6 l-1.7-4l2.3-0.8c3.2-1.1,9.9-3.1,19-5.1l2.3-0.5l0.3,2.3C116.7,212,115.7,217.7,112.9,222.4z M190.2,195.9 c-11.2-2.3-23-3.4-35.1-3.4c-30.2,0-54.7,7.3-63.8,10.4l-1.9,0.7l-18.7-44.3l1.8-0.9c14-7.2,49.3-27.9,73.8-66.2l2.3-3.5 l45.8,108.1L190.2,195.9z M218.5,208.2c-0.9,1.4-2.4,2.2-4.1,2.3l-7.4,0.1L147.5,69.9l5.2-5.3c1-1,2.2-1.5,3.5-1.5l0.8,0l0.2,0 c1.6,0.3,3,1.4,3.6,2.9C212.1,187.5,218.3,202,219,204c-0.1-0.2,0-0.3-0.1-0.5l0.1,0.6c0,0,0-0.1-0.1-0.2 C219.4,205.4,219.3,206.9,218.5,208.2z M168.7,68.5l8.8,9.8c10,11.2,20.7,29.2,29.3,49.4c8.6,20.3,14.1,40.4,15.1,55.4l0.9,13.1 L168.7,68.5z" fill="inherit"/><path d="M85.3,215.8l4.1-1.7l-1.7-4.1l-14.4-34.1L65.6,158l-0.9-2.1l-1.7-4.1l-4.1,1.7l-25,10.6l-4.1,1.7l1.7,4.1l1.6,3.9 l19.6,46.3l1.6,3.9l1.7,4.1l4.1-1.7l14-5.9L85.3,215.8z M58.5,222.3l-1.6-3.9c0,0,0,0,0,0l-19.6-46.3c0,0,0,0,0,0l-1.6-3.9 l25-10.6l0.9,2.1c0,0,0,0,0,0l7.6,17.9l14.4,34.1l-11,4.6L58.5,222.3z" fill="inherit"/><path d="M33.8,180.3l-2.3-5.5l-4.6,3.8c-7.7,6.5-10.2,17.1-6.3,26.3l1.1,2.6c2.4,5.6,6.8,9.9,12.4,12.2c2.7,1.1,5.6,1.7,8.5,1.7 c0.8,0,1.6,0,2.4-0.1l5.9-0.6l-2.3-5.5L33.8,180.3z M42.7,217.1c-2.3,0-4.7-0.5-6.9-1.4c-4.5-1.8-8.1-5.3-10-9.9l-1.1-2.6 c-3.2-7.6-0.9-16.2,5.1-21.2L44.6,217C44,217,43.3,217.1,42.7,217.1z" fill="inherit"/><path d="M220.8,202.7c-2-5.1-11.6-27.7-58-137.4c-0.9-2.2-2.8-3.8-5.3-4.2c-0.4-0.1-0.8-0.1-1.4-0.1c-1.9,0-3.7,0.8-5.1,2.1 l-4.2,4.2l-2.1,2.1l1.1,2.7l12.5,29.5l41.9,98.9l0,0l0.2,0.4l3.8,8.9l1.1,2.7l2.9,0l5.9-0.1c2.4,0,4.6-1.2,5.9-3.2 c1.3-2,1.6-4.5,0.6-6.7L220.8,202.7z M216.7,207c-0.3,0.5-1,1.2-2.3,1.2l-5.9,0.1l-3.8-8.9c0,0,0,0,0,0l-42.1-99.4l-12.5-29.5 l4.2-4.2c0.6-0.7,1.4-0.8,1.9-0.8c0.2,0,0.4,0,0.5,0.1c0.5,0.1,1.5,0.5,2,1.6c0,0,58.2,137.4,58.2,137.4 C217.4,205.6,217,206.5,216.7,207z" fill="inherit"/><path d="M214.6,124.4c-12.4-29.3-31.4-59.3-47.4-64c-2-2.9-5-4.9-8.5-5.6c-0.9-0.2-1.7-0.2-2.6-0.2c-3.6,0-7,1.4-9.6,4l-6.7,6.8 c-1.5,1.6-2,3.9-1.1,5.9l4.1,9.8c-22.9,40-60.4,62.3-73.7,69.3l-0.8-1.8c-0.6-1.3-1.6-2.4-2.9-2.9c-0.6-0.3-1.3-0.4-2-0.4 c-0.7,0-1.4,0.1-2.1,0.4l-34.9,14.8c-2.7,1.2-4,4.3-2.9,7.1l1.9,4.4c-11.4,7.6-16.3,22.5-10.7,35.6l1.1,2.6 c3,7.2,8.7,12.7,15.9,15.6c3.5,1.4,7.2,2.1,10.9,2.1c2.1,0,4.1-0.3,6.2-0.7l1.8,4.4c0.6,1.3,1.6,2.4,2.9,2.9 c0.6,0.3,1.3,0.4,2,0.4c0.7,0,1.4-0.1,2.1-0.4l4.2-1.8l8.4,53.7c0.8,5,3.7,9.2,8.1,11.7c2.5,1.4,5.2,2.1,7.9,2.1 c2.1,0,4.3-0.4,6.3-1.3c6.6-2.8,10.5-9.4,9.8-16.5l-3.8-39.6c5.8-1.9,15.6-6.4,21.4-15.7c4.1-6.7,5.5-14.5,4.1-23.3 c9.2-1.5,19.7-2.6,31.1-2.6c12.7,0,26.5,1.3,40.6,4.9l4.1,9.8c0.8,2,2.8,3.3,5,3.3c0,0,0,0,0.1,0l9.5-0.1c4.5,0,8.7-2.3,11.2-6.1 c2-3,2.6-6.6,1.9-10C235.4,188.2,227,153.6,214.6,124.4z M222,210.5c-1.7,2.5-4.5,4.1-7.5,4.1l-9.6,0.1c-0.4,0-0.8-0.2-0.9-0.6 l-4.1-9.8l-0.9-2l-2.1-0.5c-13.2-3.3-27.2-5-41.7-5c-10.4,0-21.1,0.9-31.8,2.6l-4.3,0.7l0.7,4.3c1.3,7.8,0.1,14.6-3.4,20.3 c-5.1,8.2-14.1,12.2-19,13.8l-3.3,1.1l0.3,3.5l3.8,39.6c0.5,5.2-2.4,10-7.2,12c-1.5,0.6-3,0.9-4.6,0.9c-2,0-4-0.5-5.7-1.5 c-3.2-1.8-5.4-4.9-5.9-8.5l-8.4-53.7l-0.9-5.6l-5.2,2.2l-4.2,1.8c-0.1,0.1-0.3,0.1-0.4,0.1c-0.1,0-0.2,0-0.4-0.1 c-0.2-0.1-0.4-0.3-0.5-0.5l-1.8-4.4l-1.4-3.4l-3.6,0.8c-1.9,0.4-3.6,0.6-5.2,0.6c-3.2,0-6.3-0.6-9.3-1.8 c-6.1-2.5-10.9-7.2-13.5-13.3l-1.1-2.6c-4.6-10.9-0.8-23.6,9.1-30.2l3-2l-1.4-3.4l-1.8-4.4c-0.2-0.5,0-1.1,0.5-1.3l34.9-14.8 c0.1-0.1,0.2-0.1,0.4-0.1c0.1,0,0.3,0,0.4,0.1c0.2,0.1,0.4,0.3,0.5,0.5l0.7,1.8l1.9,4.4l4.2-2.2c14.9-7.8,52.1-30.4,75.4-71 l1.1-1.9l-0.9-2l-4.1-9.8c-0.2-0.4-0.1-0.8,0.2-1.1l6.7-6.8c1.7-1.7,4.1-2.7,6.5-2.7c0.6,0,1.2,0.1,1.7,0.2 c2.3,0.4,4.3,1.8,5.7,3.8l0.7,1l7.4,17.6L215.6,185l7.4,17.6l0.2,1.2C223.7,206.1,223.3,208.5,222,210.5z M175.8,79.8 c8.5,9.5,19.2,26,28.9,48.8c9.7,22.8,14.1,42,14.9,54.7L175.8,79.8z M225,197.4l-1-14.4c-1-15.2-6.6-35.6-15.3-56.1 c-8.7-20.5-19.5-38.7-29.7-50l-9.7-10.8c12.2,6.7,28.5,30.3,41.1,60C223.1,155.8,228.7,184,225,197.4z" fill="inherit"/><path d="M89.7,216l-5.5,2.3l-13.7,5.8l-3.2,1.3l0.5,3.4l8.8,56.4c0.5,3,2.3,5.6,5,7.1c1.5,0.8,3.1,1.2,4.8,1.2 c1.3,0,2.6-0.3,3.8-0.8c4-1.7,6.4-5.7,6-10L90.3,222L89.7,216z M88.5,288.8c-0.7,0.3-1.4,0.4-2.1,0.4c-0.9,0-1.8-0.2-2.6-0.7 c-1.5-0.8-2.5-2.2-2.7-3.9l-8.8-56.4l13.7-5.8l5.8,60.8C92,285.6,90.7,287.9,88.5,288.8z" fill="inherit"/><path d="M154.6,97.4l-2.5-5.8l-3.3-7.7l-4.5,7c-24.2,37.8-59.1,58.3-72.9,65.4l-3.7,1.9l1.6,3.8l17.1,40.5l1.6,3.8l3.9-1.3 c9-3.1,33.2-10.3,63.1-10.3c11.9,0,23.5,1.1,34.6,3.4l8.2,1.7l-3.3-7.7L154.6,97.4z M155.1,190.2c-30.1,0-54.4,7.1-64.5,10.5 l-17.1-40.5c13.1-6.7,49.6-27.8,74.6-66.9l2.5,5.8l40,94.6C178.2,191.2,166.3,190.2,155.1,190.2z" fill="inherit"/><path d="M117.2,200.4l-4.6,1c-9.1,2-15.9,4.1-19.2,5.2l-4.5,1.5l1.9,4.4l0.6,1.5c0,0.2,0.1,0.3,0.1,0.5c0,0.2,0.1,0.4,0.2,0.6 l1.6,16.9l0.6,5.8l5.5-2.2c6.9-2.8,12.3-7,15.5-12.1c3.2-5.1,4.2-11.3,3.2-18.5L117.2,200.4z M111,221.2 c-3.4,5.5-9.1,8.6-13.4,10.3L96,214.1c0-0.2-0.1-0.4-0.2-0.5c-0.1-0.3-0.1-0.7-0.2-1l-0.8-1.8c4.1-1.4,10.6-3.3,18.7-5 C114.4,211.7,113.6,216.9,111,221.2z" fill="inherit"/><path d="M31.8,181.2l-1.2-2.7l-2.3,1.9c-7,5.9-9.3,15.4-5.7,23.8l1.1,2.6c2.1,5.1,6.1,9,11.2,11c2.5,1,5.1,1.5,7.7,1.5 c0.7,0,1.4,0,2.1-0.1l2.9-0.3l-1.2-2.7L31.8,181.2z M42.7,217.1c-2.3,0-4.7-0.5-6.9-1.4c-4.5-1.8-8.1-5.3-10-9.9l-1.1-2.6 c-3.2-7.6-0.9-16.2,5.1-21.2L44.6,217C44,217,43.3,217.1,42.7,217.1z" fill="inherit"/><path d="M218.8,203.6c-1.3-3.4-9.4-22.6-58.1-137.4c-0.7-1.5-2-2.6-3.6-2.9c-0.3,0-0.6-0.1-1-0.1c-1.3,0-2.5,0.5-3.5,1.5l-4.2,4.2 l-1,1l0.6,1.4l12.5,29.5l42,99.2l0,0l0.1,0.2l3.8,8.9l0.6,1.4l1.5,0l5.9-0.1c1.7,0,3.2-0.8,4.1-2.2 C219.4,206.8,219.6,205.1,218.8,203.6L218.8,203.6z M216.7,207c-0.3,0.5-1,1.2-2.3,1.2l-5.9,0.1l-3.8-8.9c0,0,0,0,0,0l-42.1-99.4 l-12.5-29.5l4.2-4.2c0.6-0.7,1.4-0.8,1.9-0.8c0.2,0,0.4,0,0.5,0.1c0.5,0.1,1.5,0.5,2,1.6c0,0,58.2,137.4,58.2,137.4 C217.4,205.6,217,206.5,216.7,207z" fill="inherit"/><path d="M214.6,124.4c-12.4-29.3-31.4-59.3-47.4-64c-2-2.9-5-4.9-8.5-5.6c-0.9-0.2-1.7-0.2-2.6-0.2c-3.6,0-7,1.4-9.6,4l-6.7,6.8 c-1.5,1.6-2,3.9-1.1,5.9l4.1,9.8c-22.9,40-60.4,62.3-73.7,69.3l-0.8-1.8c-0.6-1.3-1.6-2.4-2.9-2.9c-0.6-0.3-1.3-0.4-2-0.4 c-0.7,0-1.4,0.1-2.1,0.4l-34.9,14.8c-2.7,1.2-4,4.3-2.9,7.1l1.9,4.4c-11.4,7.6-16.3,22.5-10.7,35.6l1.1,2.6 c3,7.2,8.7,12.7,15.9,15.6c3.5,1.4,7.2,2.1,10.9,2.1c2.1,0,4.1-0.3,6.2-0.7l1.8,4.4c0.6,1.3,1.6,2.4,2.9,2.9 c0.6,0.3,1.3,0.4,2,0.4c0.7,0,1.4-0.1,2.1-0.4l4.2-1.8l8.4,53.7c0.8,5,3.7,9.2,8.1,11.7c2.5,1.4,5.2,2.1,7.9,2.1 c2.1,0,4.3-0.4,6.3-1.3c6.6-2.8,10.5-9.4,9.8-16.5l-3.8-39.6c5.8-1.9,15.6-6.4,21.4-15.7c4.1-6.7,5.5-14.5,4.1-23.3 c9.2-1.5,19.7-2.6,31.1-2.6c12.7,0,26.5,1.3,40.6,4.9l4.1,9.8c0.8,2,2.8,3.3,5,3.3c0,0,0,0,0.1,0l9.5-0.1c4.5,0,8.7-2.3,11.2-6.1 c2-3,2.6-6.6,1.9-10C235.4,188.2,227,153.6,214.6,124.4z M225.6,201.8l-0.4,0.7l0.1,0.8c0.6,2.9,0,5.9-1.6,8.4 c-2.1,3.2-5.6,5.1-9.4,5.1l-9.6,0.1c-1.3,0-2.4-0.8-2.9-1.9l-4.1-9.8l-0.4-1l-1.1-0.3c-13-3.3-26.8-5-41.1-5 c-10.3,0-20.9,0.9-31.4,2.6l-2.2,0.4l0.3,2.2c1.3,8.3,0.1,15.7-3.7,21.8c-5.5,8.8-15,13-20.2,14.7l-1.7,0.6l0.2,1.7l3.8,39.6 c0.6,6.1-2.8,11.8-8.5,14.2c-1.8,0.7-3.6,1.1-5.5,1.1c-2.4,0-4.7-0.6-6.8-1.8c-3.8-2.1-6.4-5.8-7-10.1l-8.4-53.7l-0.4-2.8 l-2.6,1.1l-4.2,1.8c-0.4,0.2-0.8,0.3-1.2,0.3c-0.4,0-0.8-0.1-1.2-0.2c-0.8-0.3-1.4-0.9-1.7-1.7l-1.8-4.4l-0.7-1.7l-1.8,0.4 c-2,0.4-3.9,0.7-5.7,0.7c-3.5,0-6.9-0.7-10.1-2c-6.7-2.7-11.9-7.8-14.7-14.5l-1.1-2.6c-5-11.9-0.9-25.7,9.9-32.9l1.5-1l-0.7-1.7 l-1.8-4.4c-0.7-1.6,0.1-3.5,1.7-4.2l34.9-14.8c0.4-0.2,0.8-0.2,1.2-0.2c0.4,0,0.8,0.1,1.2,0.2c0.8,0.3,1.4,0.9,1.7,1.7l0.8,1.8 l0.9,2.2l2.1-1.1c14.7-7.7,51.5-30,74.6-70.1l0.5-0.9l-0.4-1l-4.1-9.8c-0.5-1.2-0.2-2.6,0.7-3.5l6.7-6.8c2.1-2.1,5-3.4,8-3.4 c0.7,0,1.4,0.1,2.1,0.2c2.9,0.6,5.4,2.2,7.1,4.7l0.4,0.6l0.7,0.2c15.3,4.4,34.1,34.7,46,62.7C224.4,153.2,233.1,187.8,225.6,201.8 z" fill="inherit"/><path d="M84.4,213.8l2-0.9l-0.9-2l-14.4-34.1l-7.6-17.9l-0.9-2.1l-0.9-2l-2,0.9l-25,10.6l-2,0.9l0.9,2l1.6,3.9l19.6,46.3l1.6,3.9 l0.9,2l2-0.9l14-5.9L84.4,213.8z M58.5,222.3l-1.6-3.9c0,0,0,0,0,0l-19.6-46.3c0,0,0,0,0,0l-1.6-3.9l25-10.6l0.9,2.1c0,0,0,0,0,0 l7.6,17.9l14.4,34.1l-11,4.6L58.5,222.3z" fill="inherit"/><path d="M206.7,127.7c-8.6-20.2-19.2-38.3-29.3-49.4l-8.8-9.8l5.1,12.1l43.8,103.5l5.1,12.1l-0.9-13.1 C220.8,168.1,215.3,147.9,206.7,127.7z M175.8,79.8c8.5,9.5,19.2,26,28.9,48.8c9.7,22.8,14.1,42,14.9,54.7L175.8,79.8z" fill="inherit"/><path d="M152.6,98.3l-2.5-5.8l-1.6-3.8l-2.3,3.5c-24.5,38.2-59.8,59-73.8,66.2l-1.8,0.9l0.8,1.9l17.1,40.5l0.8,1.9l1.9-0.7 c9.1-3.1,33.6-10.4,63.8-10.4c12,0,23.8,1.2,35.1,3.4l4.1,0.8l-1.6-3.8L152.6,98.3z M155.1,190.2c-30.1,0-54.4,7.1-64.5,10.5 l-17.1-40.5c13.1-6.7,49.6-27.8,74.6-66.9l2.5,5.8l40,94.6C178.2,191.2,166.3,190.2,155.1,190.2z" fill="inherit"/><path d="M115.4,203l-2.3,0.5c-9,2-15.7,4-19,5.1l-2.3,0.7l0.9,2.2l0.8,1.9c0,0.2,0,0.3,0.1,0.5l0.2,0.5l0,0l1.7,17.2l0.3,2.9 l2.7-1.1c6.5-2.6,11.5-6.5,14.4-11.2c2.9-4.7,3.8-10.4,2.9-17L115.4,203z M111,221.2c-3.4,5.5-9.1,8.6-13.4,10.3L96,214.1 c0-0.2-0.1-0.4-0.2-0.5c-0.1-0.3-0.1-0.7-0.2-1l-0.8-1.8c4.1-1.4,10.6-3.3,18.7-5C114.4,211.7,113.6,216.9,111,221.2z" fill="inherit"/><path d="M87.8,219.2l-2.8,1.2l-13.7,5.8l-1.6,0.7l0.3,1.7l8.8,56.4c0.4,2.3,1.8,4.3,3.8,5.5c1.1,0.6,2.4,1,3.7,1c1,0,2-0.2,3-0.6 c3.1-1.3,5-4.4,4.6-7.8l-5.8-60.8L87.8,219.2z M88.5,288.8c-0.7,0.3-1.4,0.4-2.1,0.4c-0.9,0-1.8-0.2-2.6-0.7 c-1.5-0.8-2.5-2.2-2.7-3.9l-8.8-56.4l13.7-5.8l5.8,60.8C92,285.6,90.7,287.9,88.5,288.8z" fill="inherit"/></g></g></svg>