<svg xmlns="http://www.w3.org/2000/svg" viewBox="0 0 737.36 556.93">
    <path d="M 389.86 0.56 C 298.19 -3.03 209.77 31.78 142.21 97.34 C 74.65 162.91 33.41 254.58 26.78 352.51 C 20.14 450.44 49.69 546.68 111.02 616.57 C 179.36 694.34 281.97 740.68 391.71 738.32 C 501.45 735.95 602.92 686.16 667.92 606.82 C 732.91 527.47 755.21 423.61 728.22 327.98 C 701.22 232.34 627.19 155.08 536.68 113.28 C 469.69 81.34 397.84 66.91 327.84 66.91 L 390.95 0.56 Z M 298.44 263.82 L 428.48 158.34 L 371.73 371.87 L 501.77 476.35 L 371.73 571.82 L 428.48 358.3 L 298.44 263.82 Z" fill="white"/>
</svg>
