<?xml version="1.0" encoding="UTF-8" standalone="no"?><svg xmlns="http://www.w3.org/2000/svg" xmlns:xlink="http://www.w3.org/1999/xlink" fill="#0f1544" height="531.1" preserveAspectRatio="xMidYMid meet" version="1" viewBox="-20.1 1.0 531.1 531.1" width="531.1" zoomAndPan="magnify"><g><g><g id="change1_1"><path d="M133.762,212.055c-45.922,45.924-45.928,120.253,0,166.183c45.924,45.922,120.253,45.928,166.183,0 c45.18-45.183,45.358-116.757,3.703-162.304l-31.029,31.029c11.192,12.936,17.986,29.776,17.986,48.183 c0,40.667-33.085,73.752-73.752,73.752s-73.752-33.085-73.752-73.752s33.085-73.752,73.752-73.752 c18.407,0,35.247,6.794,48.183,17.986l31.029-31.029C250.535,166.712,178.951,166.868,133.762,212.055z"/><path d="M257.44,246.978c-10.974-9.261-25.135-14.859-40.586-14.859c-34.754,0-63.027,28.274-63.027,63.027 s28.274,63.027,63.027,63.027s63.027-28.274,63.027-63.027c0-15.451-5.598-29.612-14.859-40.586l-44.377,44.377 c-2.092,2.094-5.49,2.095-7.582,0c-2.095-2.094-2.095-5.489,0-7.582L257.44,246.978z"/><path d="M99.01,177.301c-31.477,31.478-48.812,73.33-48.812,117.845c0,92.107,74.538,166.657,166.657,166.657 c44.515,0,86.368-17.336,117.845-48.813c64.008-64.01,64.962-166.621,3.724-231.831l-27.188,27.188 c46.292,50.234,45.225,128.543-3.708,177.474c-24.22,24.221-56.422,37.559-90.674,37.559 c-70.87,0-128.233-57.354-128.233-128.233c0-70.87,57.354-128.233,128.233-128.233c32.458,0,63.071,11.985,86.8,33.851 l27.188-27.188C265.632,112.341,163.021,113.292,99.01,177.301z"/><path d="M425.595 1L383.512 43.083 401.199 103.219 443.282 61.135z"/><path d="M346.01,173.572c65.492,69.472,64.408,178.866-3.729,247.001c-69.32,69.32-181.526,69.331-250.854,0 c-33.503-33.502-51.954-78.047-51.954-125.427c0-98.03,79.333-177.382,177.381-177.382c45.589,0,88.546,17.089,121.574,48.225 l27.186-27.186c-84.568-80.566-218.274-79.336-301.358,3.745c-84.336,84.338-84.346,220.847,0,305.195 c84.338,84.336,220.846,84.347,305.195,0c82.913-82.915,84.456-216.638,3.745-301.358L346.01,173.572z"/><path d="M408.781 110.801L468.917 128.488 511 86.405 450.865 68.718z"/><path d="M369.451,447.744c-40.761,40.76-94.953,63.208-152.598,63.208c-119.27,0-215.805-96.52-215.805-215.805 c0-119.268,96.518-215.805,215.805-215.805c55.854,0,108.466,21.075,148.76,59.462l-27.186,27.186 c-69.472-65.492-178.865-64.408-247.001,3.729c-69.32,69.32-69.331,181.526,0,250.854 c33.502,33.503,78.047,51.954,125.427,51.954c47.381,0,91.925-18.451,125.428-51.954c68.058-68.055,69.301-177.443,3.729-247.001 l27.186-27.186C453.762,230.954,452.533,364.66,369.451,447.744z M213.062,298.938c2.092,2.094,5.49,2.095,7.582,0l44.377-44.377 c9.261,10.974,14.859,25.135,14.859,40.586c0,34.754-28.274,63.027-63.027,63.027s-63.027-28.274-63.027-63.027 s28.274-63.027,63.027-63.027c15.451,0,29.612,5.598,40.586,14.859l-44.377,44.377 C210.968,293.449,210.968,296.844,213.062,298.938z M216.854,221.395c-40.667,0-73.752,33.085-73.752,73.752 s33.085,73.752,73.752,73.752s73.752-33.085,73.752-73.752c0-18.407-6.794-35.247-17.986-48.183l31.029-31.029 c41.64,45.531,41.484,117.115-3.703,162.304c-45.924,45.922-120.253,45.928-166.183,0c-45.922-45.924-45.928-120.253,0-166.183 c45.183-45.18,116.757-45.358,162.304-3.703l-31.029,31.029C252.101,228.189,235.261,221.395,216.854,221.395z M126.18,204.472 c-24.221,24.22-37.559,56.422-37.559,90.674c0,70.87,57.354,128.233,128.233,128.233c34.252,0,66.454-13.338,90.674-37.559 c48.888-48.886,50.046-127.189,3.708-177.474l27.188-27.188c61.236,65.209,60.285,167.82-3.724,231.831 c-31.478,31.477-73.33,48.813-117.845,48.813c-92.107,0-166.657-74.538-166.657-166.657c0-92.107,74.538-166.658,166.657-166.658 c42.723,0,82.987,15.977,113.987,45.088l-27.188,27.188C253.419,154.472,175.11,155.54,126.18,204.472z M383.512,43.083 L425.595,1l17.687,60.135l-42.084,42.084L383.512,43.083z M468.917,128.488l-60.136-17.686l42.084-42.084L511,86.405 L468.917,128.488z"/></g></g></g></svg>