<?xml version="1.0" encoding="UTF-8" standalone="no"?><svg xmlns="http://www.w3.org/2000/svg" xmlns:xlink="http://www.w3.org/1999/xlink" fill="#0f1544" height="58" preserveAspectRatio="xMidYMid meet" version="1" viewBox="0.0 0.0 58.0 58.0" width="58" zoomAndPan="magnify"><g id="change1_1"><path d="M18 27.711L27.292 21 18 21z" fill="inherit"/><path d="M22 16H24V19H22z" fill="inherit"/><path d="M18 16H20V19H18z" fill="inherit"/><path d="M18 12H40V14H18z" fill="inherit"/><path d="M56,6H42v20h14V6z M48,23h-2c-0.552,0-1-0.448-1-1v-3h3V23z M48,17h-3v-2h3V17z M48,13h-3c0-1.862,1.278-3.413,3-3.859V13z M53,22c0,0.552-0.448,1-1,1h-2v-4h3V22z M53,17h-3v-2h3V17z M50,13V9.141c1.722,0.446,3,1.997,3,3.859H50z" fill="inherit"/><path d="M12,35.015C12,35.558,12.442,36,12.985,36h0.365c0.211,0,0.412-0.066,0.582-0.191L29,24.76l15.067,11.049 C44.237,35.934,44.438,36,44.649,36h0.365C45.558,36,46,35.558,46,35.015c0-0.315-0.153-0.614-0.409-0.799L29,22.233L12.409,34.216 C12.153,34.4,12,34.699,12,35.015z" fill="inherit"/><path d="M2,26h14V6H2V26z M10,9.141c1.722,0.446,3,1.997,3,3.859h-3V9.141z M10,15h3v2h-3V15z M10,19h3v3c0,0.552-0.448,1-1,1h-2 V19z M8,9.141V13H5C5,11.138,6.278,9.587,8,9.141z M5,15h3v2H5V15z M5,19h3v4H6c-0.552,0-1-0.448-1-1V19z" fill="inherit"/><path d="M38 16H40V19H38z" fill="inherit"/><path d="M30 16H32V19H30z" fill="inherit"/><path d="M26 16H28V19H26z" fill="inherit"/><path d="M34 16H36V19H34z" fill="inherit"/><path d="M40 27.711L40 21 30.708 21z" fill="inherit"/><path d="M56,28H42v1.155l4.763,3.44C47.537,33.154,48,34.06,48,35.015C48,36.661,46.661,38,45.015,38h-0.365 c-0.222,0-0.437-0.033-0.649-0.08V44h12V28z" fill="inherit"/><path d="M37,48c-0.552,0-1,0.448-1,1v9h2v-9C38,48.448,37.552,48,37,48z" fill="inherit"/><path d="M16,58h2v-9c0-1.654,1.346-3,3-3s3,1.346,3,3v9h2v-9c0-1.654,1.346-3,3-3s3,1.346,3,3v9h2v-9c0-1.654,1.346-3,3-3 s3,1.346,3,3v9h2V45H16V58z" fill="inherit"/><path d="M16,36.774V43h26v-6.226L29,27.24L16,36.774z M34,36c0,2.761-2.239,5-5,5s-5-2.239-5-5s2.239-5,5-5S34,33.239,34,36z" fill="inherit"/><path d="M1.618,4h14.764l1.553-3.105C17.978,0.809,18,0.713,18,0.618C18,0.277,17.723,0,17.382,0H0.618C0.277,0,0,0.277,0,0.618 c0,0.095,0.022,0.191,0.065,0.276L1.618,4z" fill="inherit"/><path d="M44 46H58V48H44z" fill="inherit"/><path d="M44,58h2v-3.5c0-0.828,0.672-1.5,1.5-1.5s1.5,0.672,1.5,1.5V58h4v-3.5c0-0.828,0.672-1.5,1.5-1.5s1.5,0.672,1.5,1.5V58h2 v-8H44V58z" fill="inherit"/><path d="M41.618,4h14.764l1.553-3.105C57.978,0.809,58,0.713,58,0.618C58,0.277,57.723,0,57.382,0H40.618 C40.277,0,40,0.277,40,0.618c0,0.095,0.022,0.191,0.065,0.276L41.618,4z" fill="inherit"/><path d="M0,58h2v-3.5C2,53.672,2.672,53,3.5,53S5,53.672,5,54.5V58h4v-3.5c0-0.828,0.672-1.5,1.5-1.5s1.5,0.672,1.5,1.5V58h2v-8H0 V58z" fill="inherit"/><path d="M0 46H14V48H0z" fill="inherit"/><path d="M12.985,38C11.339,38,10,36.661,10,35.015c0-0.955,0.463-1.86,1.237-2.42L16,29.155V28H2v16h12v-6.08 C13.788,37.967,13.572,38,13.351,38H12.985z" fill="inherit"/><path d="M29,48c-0.552,0-1,0.448-1,1v9h2v-9C30,48.448,29.552,48,29,48z" fill="inherit"/><path d="M21,48c-0.552,0-1,0.448-1,1v9h2v-9C22,48.448,21.552,48,21,48z" fill="inherit"/><path d="M26.293 34.707L28.586 37 31 37 31 35 29.414 35 27.707 33.293z" fill="inherit"/></g></svg>